<svg xmlns="http://www.w3.org/2000/svg" x="0px" y="0px"
width="48" height="48"
viewBox="0 0 64 64"
style="fill:#E3FF66;"><path d="M 32 6 C 31.48825 6 30.976437 6.1954375 30.585938 6.5859375 L 26.449219 10.720703 L 20.611328 8.8457031 C 20.066328 8.6727031 19.471516 8.7362969 18.978516 9.0292969 C 18.486516 9.3222969 18.142156 9.8139531 18.035156 10.376953 L 17.345703 14 L 12 14 C 11.336 14 10.716703 14.329906 10.345703 14.878906 C 9.9737031 15.428906 9.8985312 16.126188 10.144531 16.742188 L 11.873047 21.0625 L 10.103516 26.367188 C 9.8845156 27.025187 10.022797 27.74925 10.466797 28.28125 C 10.909797 28.81425 11.595203 29.074469 12.283203 28.980469 L 13 28.878906 L 13 33 L 13 34 C 13 34 12 35.853 12 38 C 12 40.875 14.338 43.181 16 44 C 17.896 51.908 27 57 32 57 C 37 57 46.104 51.908 48 44 C 49.662 43.181 52 40.875 52 38 C 52 35.853 51 34 51 34 L 51 33 L 51 28.878906 L 51.716797 28.980469 C 51.786797 28.988469 51.929 28.997 52 29 C 52.588 29.021 53.152156 28.73925 53.535156 28.28125 C 53.979156 27.74925 54.115484 27.024188 53.896484 26.367188 L 52.128906 21.0625 L 53.857422 16.742188 C 54.103422 16.126188 54.02825 15.427906 53.65625 14.878906 C 53.28425 14.328906 52.664 14 52 14 L 46.654297 14 L 45.964844 10.376953 C 45.857844 9.8139531 45.513484 9.3212969 45.021484 9.0292969 C 44.528484 8.7362969 43.935672 8.6727031 43.388672 8.8457031 L 37.550781 10.720703 L 33.414062 6.5859375 C 33.023563 6.1954375 32.51175 6 32 6 z M 32 10.828125 L 35.585938 14.414062 C 36.115937 14.945063 36.897328 15.133297 37.611328 14.904297 L 42.458984 13.345703 L 43.035156 16.373047 C 43.215156 17.316047 44.04 18 45 18 L 49.046875 18 L 48.142578 20.257812 C 47.967578 20.696813 47.952562 21.183812 48.101562 21.632812 L 49.078125 24.5625 L 45.283203 24.019531 C 45.189203 24.006531 45.095 24 45 24 L 19 24 C 18.905 24 18.811797 24.006531 18.716797 24.019531 L 14.919922 24.5625 L 15.896484 21.632812 C 16.045484 21.183813 16.032422 20.696813 15.857422 20.257812 L 14.953125 18 L 19 18 C 19.96 18 20.784844 17.316047 20.964844 16.373047 L 21.541016 13.345703 L 26.388672 14.904297 C 27.101672 15.132297 27.883063 14.944062 28.414062 14.414062 L 32 10.828125 z M 19.142578 28 L 24 28 L 24 31 L 17 31 L 17 28.306641 L 19.142578 28 z M 28 28 L 36 28 L 36 31 L 28 31 L 28 28 z M 40 28 L 44.857422 28 L 47 28.306641 L 47 31 L 40 31 L 40 28 z M 17 35 L 47 35 L 47 35.009766 C 47 35.009766 48 36.071 48 38 C 48 40.248 44.548828 41.242188 44.548828 41.242188 C 44.548828 42.707887 44.030838 44.131631 43.212891 45.457031 C 42.611716 44.906302 41.929081 44.356633 41.121094 43.779297 C 40.446094 43.299297 39.510297 43.455906 39.029297 44.128906 C 38.548297 44.803906 38.704906 45.739703 39.378906 46.220703 C 40.16623 46.783 40.804914 47.305645 41.351562 47.824219 C 40.706962 48.490374 40.001558 49.10656 39.269531 49.669922 C 38.838634 49.016095 38.319698 48.318108 37.638672 47.523438 C 37.099672 46.894438 36.154438 46.819375 35.523438 47.359375 C 34.894438 47.898375 34.822328 48.845609 35.361328 49.474609 C 35.953158 50.165235 36.418782 50.778476 36.777344 51.322266 C 34.916807 52.373682 33.139884 53 32 53 C 30.85062 53 29.053205 52.40797 27.175781 51.384766 C 27.538385 50.826839 28.025276 50.192354 28.638672 49.476562 C 29.177672 48.847562 29.105563 47.900328 28.476562 47.361328 C 27.846562 46.821328 26.901328 46.893437 26.361328 47.523438 C 25.648357 48.354945 25.103681 49.084702 24.664062 49.763672 C 23.923984 49.203422 23.210136 48.586636 22.5625 47.912109 C 23.127837 47.364939 23.789754 46.814435 24.621094 46.220703 C 25.295094 45.738703 25.451703 44.802906 24.970703 44.128906 C 24.488703 43.454906 23.552906 43.299297 22.878906 43.779297 C 22.045347 44.374905 21.340891 44.941527 20.726562 45.509766 C 19.946496 44.192445 19.451172 42.759583 19.451172 41.242188 C 19.451172 41.242187 16 40.206 16 38 C 16 36 17 35 17 35 z"></path></svg>